<svg id="Layer_1" data-name="Layer 1" xmlns="http://www.w3.org/2000/svg" xmlns:xlink="http://www.w3.org/1999/xlink" viewBox="0 0 587.41 140.35"><defs><style>.cls-1{fill:none;stroke:#333;stroke-miterlimit:10;stroke-width:4px;}.cls-2{fill:#333;}.cls-3{clip-path:url(#clip-path);}.cls-4{fill:#727373;}</style><clipPath id="clip-path"><circle class="cls-1" cx="302.71" cy="70.21" r="66.43"/></clipPath></defs><title>gina_lioti_chef_logo</title><path class="cls-2" d="M60.51,92.32Q57,97.37,49.38,100.2a48.17,48.17,0,0,1-17,2.83,31.5,31.5,0,0,1-16.88-4.55A30.29,30.29,0,0,1,4.11,85.6,43.64,43.64,0,0,1,0,66.5V56.29Q0,39.47,8.49,29.73T31.31,20q12.49,0,20.1,6.36t9,17.51H53.63q-1.5-8.91-7.24-13.5t-15-4.59q-11.33,0-17.93,8.06T6.83,56.54v9.56A39.91,39.91,0,0,0,10,82.4a24.87,24.87,0,0,0,9,11,23.77,23.77,0,0,0,13.46,3.89,37.56,37.56,0,0,0,15.16-2.78,16.32,16.32,0,0,0,6.11-4.27V69.34H32V63.56H60.51Z"/><path class="cls-2" d="M77.94,24.51a4.45,4.45,0,0,1,1.22-3.17A4.36,4.36,0,0,1,82.5,20a4.45,4.45,0,0,1,3.36,1.3,4.4,4.4,0,0,1,1.25,3.17,4.3,4.3,0,0,1-1.25,3.14,4.5,4.5,0,0,1-3.36,1.27,4.4,4.4,0,0,1-3.33-1.27A4.36,4.36,0,0,1,77.94,24.51Zm7.83,77.42H79.11V41.86h6.66Z"/><path class="cls-2" d="M110.14,41.86l.22,10.27a23.85,23.85,0,0,1,8.44-8.47A21.92,21.92,0,0,1,130,40.75q9.66,0,14.38,5.44t4.77,16.32v39.42h-6.61V62.45q-.06-8-3.41-12t-10.74-3.94a16.81,16.81,0,0,0-10.91,3.86,22.61,22.61,0,0,0-7,10.41v41.14h-6.61V41.86Z"/><path class="cls-2" d="M204.19,101.92a31.39,31.39,0,0,1-1.28-8.38,23.15,23.15,0,0,1-8.91,7A27.29,27.29,0,0,1,182.54,103q-8.66,0-14-4.83A15.73,15.73,0,0,1,163.16,86a16.08,16.08,0,0,1,7.3-13.88Q177.76,67,190.81,67h12V60.18q0-6.44-4-10.13t-11.58-3.69a18.12,18.12,0,0,0-11.49,3.55q-4.55,3.55-4.55,8.55l-6.66-.06q0-7.16,6.66-12.41t16.38-5.25q10,0,15.85,5t6,14V88.21q0,8.72,1.83,13v.67Zm-20.87-4.77a22.3,22.3,0,0,0,11.91-3.22,18.94,18.94,0,0,0,7.63-8.6V72.11H191q-9.94.11-15.54,3.64t-5.61,9.69a10.74,10.74,0,0,0,3.75,8.38A14.12,14.12,0,0,0,183.31,97.15Z"/><path class="cls-2" d="M401.49,96.15H441.4v5.77H394.6V21.09h6.88Z"/><path class="cls-2" d="M452.56,24.51a4.45,4.45,0,0,1,1.22-3.17,4.36,4.36,0,0,1,3.33-1.3,4.45,4.45,0,0,1,3.36,1.3,4.4,4.4,0,0,1,1.25,3.17,4.3,4.3,0,0,1-1.25,3.14,4.5,4.5,0,0,1-3.36,1.27,4.4,4.4,0,0,1-3.33-1.27A4.36,4.36,0,0,1,452.56,24.51Zm7.83,77.42h-6.66V41.86h6.66Z"/><path class="cls-2" d="M474.77,71a35.34,35.34,0,0,1,3.36-15.6,25.23,25.23,0,0,1,23.4-14.66q12,0,19.43,8.41t7.44,22.29v1.39A35.66,35.66,0,0,1,525,88.52a25.08,25.08,0,0,1-9.46,10.74A26,26,0,0,1,501.64,103q-11.94,0-19.4-8.41t-7.47-22.29Zm6.66,1.83q0,10.77,5.58,17.68a18.88,18.88,0,0,0,29.2,0q5.58-6.91,5.58-18.24V71a30.58,30.58,0,0,0-2.55-12.6,20.53,20.53,0,0,0-7.16-8.85,18.3,18.3,0,0,0-10.55-3.14,17.75,17.75,0,0,0-14.49,7q-5.61,7-5.61,18.24Z"/><path class="cls-2" d="M552.44,26.48V41.86h12.44V47.3H552.44V87.37q0,5,1.8,7.45t6,2.45a41.32,41.32,0,0,0,5.39-.56l.28,5.39a21.73,21.73,0,0,1-7.11.94q-6.83,0-9.94-4t-3.11-11.69V47.3h-11V41.86h11V26.48Z"/><path class="cls-2" d="M578.25,24.51a4.45,4.45,0,0,1,1.22-3.17A4.36,4.36,0,0,1,582.8,20a4.45,4.45,0,0,1,3.36,1.3,4.4,4.4,0,0,1,1.25,3.17,4.3,4.3,0,0,1-1.25,3.14,4.5,4.5,0,0,1-3.36,1.27,4.4,4.4,0,0,1-3.33-1.27A4.36,4.36,0,0,1,578.25,24.51Zm7.83,77.42h-6.66V41.86h6.66Z"/><circle class="cls-1" cx="302.71" cy="70.41" r="66.43"/><g class="cls-3"><path class="cls-1" d="M324.1,70.8C324.1,175.67,283,168,275.68,140,265.05,99.4,317,76.13,342.36,100.92"/><path class="cls-1" d="M324.1,71.28C324.1-33.59,283-25.88,275.68,2,265.05,42.68,317,65.95,342.36,41.15"/><circle class="cls-1" cx="303.65" cy="70.8" r="20.46"/></g><circle class="cls-1" cx="302.71" cy="70.21" r="66.43"/><path class="cls-4" d="M515.19,129.74a10.08,10.08,0,0,1-3.3,7,11.25,11.25,0,0,1-7.65,2.5,10.89,10.89,0,0,1-5.88-1.58,10.38,10.38,0,0,1-3.92-4.5,16.23,16.23,0,0,1-1.44-6.77v-2.61a16.36,16.36,0,0,1,1.4-7,10.56,10.56,0,0,1,4-4.64,11.2,11.2,0,0,1,6.05-1.63,10.8,10.8,0,0,1,7.44,2.5,10.46,10.46,0,0,1,3.28,7.09h-4.83a6.9,6.9,0,0,0-1.76-4.35,5.8,5.8,0,0,0-4.13-1.33,5.67,5.67,0,0,0-4.86,2.31q-1.7,2.32-1.74,6.79V126q0,4.53,1.62,6.91a5.38,5.38,0,0,0,4.75,2.38,6.28,6.28,0,0,0,4.3-1.28,6.7,6.7,0,0,0,1.82-4.28Z"/><path class="cls-4" d="M541.71,138.83h-4.83V126.44H524.38v12.39h-4.85V110.9h4.85v11.63h12.49V110.9h4.83Z"/><path class="cls-4" d="M563.77,126.36H552.3V135h13.41v3.88H547.45V110.9h18.13v3.91H552.3v7.71h11.47Z"/><path class="cls-4" d="M585.76,127H574.52v11.84h-4.85V110.9h17.75v3.91H574.52v8.31h11.24Z"/></svg>