<?xml version="1.0" encoding="utf-8"?>
<!-- Generator: Adobe Illustrator 18.1.1, SVG Export Plug-In . SVG Version: 6.00 Build 0)  -->
<!DOCTYPE svg PUBLIC "-//W3C//DTD SVG 1.1//EN" "http://www.w3.org/Graphics/SVG/1.1/DTD/svg11.dtd">
<svg version="1.1" id="Layer_1" xmlns="http://www.w3.org/2000/svg" xmlns:xlink="http://www.w3.org/1999/xlink" x="0px" y="0px"
	 viewBox="0 0 487 576.6" enable-background="new 0 0 487 576.6" xml:space="preserve">
<g>
	<path fill="#B11E42" d="M81.2,489c-0.7,0.9-1.8,2-3.2,3.1c-1.5,1.1-3.4,2.2-5.7,3.2c-2.3,1-5.1,1.9-8.3,2.5c-3.2,0.7-6.7,1-10.7,1
		c-4.7,0-8.9-0.9-12.8-2.6c-3.9-1.7-7.2-4.2-9.9-7.4c-2.8-3.2-4.9-6.9-6.5-11.3c-1.5-4.4-2.3-9.3-2.3-14.6v-13.4
		c0-5.2,0.7-9.9,2.2-14.1c1.5-4.2,3.6-7.9,6.3-11c2.7-3.1,5.9-5.4,9.7-7.1c3.7-1.7,7.9-2.5,12.4-2.5c4.4,0,8.3,0.6,11.7,1.8
		c3.4,1.2,6.3,2.8,8.7,4.9c2.4,2.1,4.3,4.5,5.7,7.4c1.4,2.8,2.3,5.9,2.6,9.2h-3c-0.4-2.7-1.2-5.2-2.3-7.7c-1.1-2.5-2.7-4.6-4.8-6.5
		c-2-1.9-4.6-3.3-7.6-4.4c-3.1-1.1-6.7-1.7-11-1.7c-4.2,0-7.9,0.8-11.3,2.3c-3.4,1.6-6.3,3.7-8.7,6.5c-2.4,2.8-4.2,6.1-5.6,10
		c-1.3,3.9-2,8.1-2,12.7v13.5c0,4.8,0.7,9.3,2,13.3s3.3,7.5,5.7,10.4c2.5,2.9,5.5,5.2,9,6.8c3.5,1.6,7.4,2.4,11.8,2.4
		c3.3,0,6.4-0.3,9.2-0.8c2.8-0.5,5.2-1.2,7.3-2c2.1-0.8,3.9-1.7,5.3-2.7c1.4-1,2.5-1.9,3.1-2.7v-23.8h-25v-3.1h28V489z"/>
	<path fill="#B11E42" d="M100.2,418c0-0.9,0.3-1.6,0.9-2.2c0.6-0.6,1.3-0.9,2.2-0.9c0.9,0,1.6,0.3,2.2,0.9c0.6,0.6,0.9,1.4,0.9,2.2
		s-0.3,1.6-0.9,2.2c-0.6,0.6-1.4,0.9-2.2,0.9c-0.9,0-1.6-0.3-2.2-0.9C100.5,419.6,100.2,418.9,100.2,418z M104.8,497.7h-3V437h3
		V497.7z"/>
	<path fill="#B11E42" d="M131.2,445.1c1.4-1.9,3-3.5,4.9-4.9c1.8-1.4,3.9-2.4,6.1-3.2c2.2-0.8,4.6-1.2,7.2-1.2
		c3.1,0,5.8,0.4,8.2,1.3c2.4,0.8,4.4,2.2,6.1,4c1.6,1.8,2.9,4.1,3.8,7c0.9,2.8,1.3,6.3,1.3,10.3v39.3h-3v-39.3c0-3.9-0.4-7-1.2-9.6
		c-0.8-2.5-1.9-4.5-3.4-6s-3.2-2.5-5.2-3.1c-2-0.6-4.2-0.9-6.6-0.9c-2.2,0-4.2,0.3-6.1,0.9c-1.8,0.6-3.5,1.5-5,2.5
		c-1.5,1-2.8,2.2-4,3.6c-1.2,1.3-2.2,2.8-3,4.3c-0.8,1.5-1.5,3-2.1,4.5s-1,2.9-1.3,4.2v38.9h-3V437h3v14.2
		C128.6,449,129.8,447,131.2,445.1z"/>
	<path fill="#B11E42" d="M226.9,497.7c-0.4-1.4-0.7-3.1-0.9-5.1c-0.2-2-0.3-4-0.3-6c-1,1.6-2.3,3.2-3.8,4.7
		c-1.5,1.5-3.2,2.8-5.2,3.9c-2,1.1-4.2,2-6.7,2.7c-2.5,0.7-5.2,1-8.3,1c-2.8,0-5.4-0.4-7.7-1.2c-2.3-0.8-4.3-1.9-5.9-3.4
		c-1.6-1.5-2.9-3.2-3.8-5.2c-0.9-2-1.3-4.2-1.3-6.7c0-2.7,0.6-5.2,1.9-7.5c1.3-2.3,3.1-4.2,5.5-5.9c2.4-1.6,5.4-2.9,8.8-3.8
		s7.4-1.4,11.8-1.4h14.5V455c0-5.1-1.6-9-4.8-11.8c-3.2-2.8-7.8-4.2-13.7-4.2c-2.8,0-5.3,0.4-7.7,1.1s-4.4,1.8-6.1,3.1
		c-1.7,1.3-3.1,2.9-4.1,4.7c-1,1.8-1.5,3.8-1.5,5.9l-3-0.1c0-2.4,0.6-4.6,1.7-6.8c1.1-2.2,2.7-4,4.7-5.7c2-1.6,4.4-2.9,7.1-3.9
		c2.8-1,5.8-1.4,9-1.4c3.1,0,6,0.4,8.7,1.2c2.6,0.8,4.9,2,6.8,3.6c1.9,1.6,3.4,3.6,4.5,6c1.1,2.4,1.6,5.2,1.6,8.4v30.4
		c0,1.1,0,2.2,0.1,3.3c0.1,1.1,0.2,2.2,0.3,3.3c0.1,1,0.3,2,0.5,2.9c0.2,0.9,0.4,1.6,0.7,2.2v0.5H226.9z M201.8,495.9
		c2.9,0,5.6-0.3,8.1-1c2.5-0.7,4.7-1.6,6.7-2.9c2-1.3,3.8-2.8,5.3-4.6c1.5-1.8,2.8-3.8,3.8-6v-14.4h-14.4c-3.9,0-7.4,0.4-10.6,1.2
		c-3.1,0.8-5.7,1.8-7.9,3.2c-2.2,1.4-3.8,3-5,5c-1.2,1.9-1.7,4-1.7,6.3c0,1.8,0.4,3.6,1.2,5.2c0.8,1.6,1.8,3,3.2,4.2
		c1.4,1.2,3,2.2,4.9,2.9S199.5,495.9,201.8,495.9z"/>
	<path fill="#B11E42" d="M280.5,494.7h41.9v3h-45V416h3.1V494.7z"/>
	<path fill="#B11E42" d="M334.4,418c0-0.9,0.3-1.6,0.9-2.2c0.6-0.6,1.3-0.9,2.2-0.9c0.9,0,1.6,0.3,2.2,0.9c0.6,0.6,0.9,1.4,0.9,2.2
		s-0.3,1.6-0.9,2.2c-0.6,0.6-1.4,0.9-2.2,0.9c-0.9,0-1.6-0.3-2.2-0.9C334.7,419.6,334.4,418.9,334.4,418z M339,497.7h-3V437h3V497.7
		z"/>
	<path fill="#B11E42" d="M354.3,466.2c0-4.5,0.6-8.5,1.9-12.2c1.3-3.7,3.1-6.9,5.4-9.6c2.3-2.7,5.1-4.8,8.4-6.3s6.9-2.2,10.8-2.2
		c4,0,7.6,0.7,10.9,2.2c3.3,1.5,6.1,3.6,8.4,6.3c2.3,2.7,4.1,5.9,5.4,9.6c1.3,3.7,1.9,7.8,1.9,12.2v2.4c0,4.5-0.6,8.5-1.9,12.2
		c-1.3,3.7-3.1,6.9-5.4,9.6c-2.3,2.7-5.1,4.8-8.4,6.3c-3.3,1.5-6.9,2.2-10.8,2.2c-4,0-7.6-0.8-10.9-2.2c-3.3-1.5-6.1-3.6-8.4-6.3
		c-2.3-2.7-4.2-5.9-5.4-9.6c-1.3-3.7-1.9-7.8-1.9-12.2V466.2z M357.3,468.5c0,3.6,0.5,7.1,1.6,10.4c1.1,3.3,2.6,6.2,4.6,8.7
		s4.5,4.5,7.4,6s6.3,2.2,10,2.2c3.7,0,7-0.7,9.9-2.2c2.9-1.5,5.4-3.5,7.4-6c2-2.5,3.5-5.4,4.6-8.7c1.1-3.3,1.6-6.8,1.6-10.4v-2.4
		c0-3.6-0.5-7-1.6-10.2c-1.1-3.3-2.6-6.2-4.6-8.7c-2-2.5-4.5-4.5-7.4-6.1c-2.9-1.5-6.2-2.3-9.9-2.3s-7,0.8-9.9,2.3
		c-2.9,1.5-5.4,3.5-7.4,6.1c-2,2.5-3.5,5.4-4.6,8.7c-1.1,3.3-1.6,6.7-1.6,10.2V468.5z"/>
	<path fill="#B11E42" d="M429,420.6V437h13.8v3.1H429v43.1c0,2.7,0.2,4.8,0.7,6.5c0.5,1.6,1.2,2.9,2,3.8c0.8,0.9,1.8,1.5,2.9,1.9
		c1.1,0.3,2.3,0.5,3.5,0.5c1.2,0,2.2,0,3.1-0.1c0.9-0.1,1.9-0.2,2.9-0.4l0.5,2.9c-0.4,0.1-0.9,0.3-1.5,0.3c-0.6,0.1-1.1,0.1-1.7,0.2
		c-0.6,0.1-1.2,0.1-1.7,0.1c-0.6,0-1,0-1.4,0c-1.9,0-3.7-0.2-5.2-0.7c-1.5-0.5-2.8-1.3-3.9-2.5c-1.1-1.2-1.9-2.8-2.4-4.8
		s-0.8-4.5-0.8-7.6v-43.1h-11.2V437h11.2v-16.4H429z"/>
	<path fill="#B11E42" d="M457.7,418c0-0.9,0.3-1.6,0.9-2.2c0.6-0.6,1.3-0.9,2.2-0.9s1.6,0.3,2.2,0.9c0.6,0.6,0.9,1.4,0.9,2.2
		s-0.3,1.6-0.9,2.2c-0.6,0.6-1.4,0.9-2.2,0.9s-1.6-0.3-2.2-0.9C458,419.6,457.7,418.9,457.7,418z M462.3,497.7h-3V437h3V497.7z"/>
</g>
<g>
	<path fill="#6D6E71" d="M167.8,553.1l5,11.9l5-11.9h1.5v13.5h-1.1v-5.9l0.1-6l-5,11.9h-0.9l-5-11.9l0.1,6v5.9h-1.1v-13.5H167.8z"/>
	<path fill="#6D6E71" d="M190.2,562.8h-6.1l-1.4,3.8h-1.2l5.1-13.5h1.1l5.1,13.5h-1.2L190.2,562.8z M184.4,561.8h5.4l-2.7-7.4
		L184.4,561.8z"/>
	<path fill="#6D6E71" d="M194.8,566.6v-13.5h3.8c0.8,0,1.6,0.1,2.3,0.4c0.7,0.3,1.3,0.7,1.8,1.2c0.5,0.5,0.9,1.2,1.2,1.9
		c0.3,0.8,0.4,1.6,0.4,2.5v1.2c0,0.9-0.1,1.8-0.4,2.5c-0.3,0.8-0.7,1.4-1.2,1.9c-0.5,0.5-1.1,0.9-1.8,1.2c-0.7,0.3-1.5,0.4-2.4,0.4
		H194.8z M195.9,554v11.6h2.6c0.7,0,1.4-0.1,2-0.4c0.6-0.2,1.1-0.6,1.5-1.1c0.4-0.5,0.7-1,0.9-1.6c0.2-0.6,0.3-1.3,0.3-2.1v-1.3
		c0-0.8-0.1-1.5-0.3-2.1s-0.5-1.2-0.9-1.6s-0.9-0.8-1.5-1s-1.2-0.4-1.9-0.4H195.9z"/>
	<path fill="#6D6E71" d="M214.7,560.1h-6.3v5.5h7.3v1h-8.4v-13.5h8.4v1h-7.2v5.1h6.3V560.1z"/>
	<path fill="#6D6E71" d="M224,566.6h-1.1v-13.5h1.1V566.6z"/>
	<path fill="#6D6E71" d="M237.8,566.6h-1.1l-7.8-11.6v11.6h-1.2v-13.5h1.2l7.8,11.6v-11.6h1.1V566.6z"/>
	<path fill="#6D6E71" d="M247.6,566.6h-1.1v-13.5h1.1V566.6z"/>
	<path fill="#6D6E71" d="M256.3,560.9h-3.9v5.6h-1.2v-13.5h4.4c0.7,0,1.3,0.1,1.9,0.3c0.6,0.2,1,0.4,1.4,0.8
		c0.4,0.3,0.7,0.8,0.9,1.2c0.2,0.5,0.3,1.1,0.3,1.7c0,0.4-0.1,0.9-0.2,1.3c-0.1,0.4-0.3,0.7-0.6,1.1c-0.2,0.3-0.5,0.6-0.9,0.8
		c-0.3,0.2-0.7,0.4-1.1,0.5l3.4,5.7v0.1h-1.2L256.3,560.9z M252.4,560h3.5c0.5,0,1-0.1,1.4-0.2c0.4-0.2,0.7-0.4,1-0.6
		c0.3-0.3,0.5-0.6,0.6-0.9s0.2-0.7,0.2-1.1c0-0.5-0.1-0.9-0.2-1.3s-0.4-0.7-0.7-0.9s-0.7-0.5-1.1-0.6c-0.4-0.1-0.9-0.2-1.5-0.2h-3.2
		V560z"/>
	<path fill="#6D6E71" d="M270.8,560.1h-6.3v5.5h7.3v1h-8.4v-13.5h8.4v1h-7.2v5.1h6.3V560.1z"/>
	<path fill="#6D6E71" d="M275.3,565.6h6.7v1h-7.8v-13.5h1.2V565.6z"/>
	<path fill="#6D6E71" d="M291.6,562.8h-6.1l-1.4,3.8h-1.2l5.1-13.5h1.1l5.1,13.5H293L291.6,562.8z M285.8,561.8h5.4l-2.7-7.4
		L285.8,561.8z"/>
	<path fill="#6D6E71" d="M306.2,566.6h-1.1l-7.8-11.6v11.6h-1.2v-13.5h1.2l7.8,11.6v-11.6h1.1V566.6z"/>
	<path fill="#6D6E71" d="M309.7,566.6v-13.5h3.8c0.8,0,1.6,0.1,2.3,0.4c0.7,0.3,1.3,0.7,1.8,1.2c0.5,0.5,0.9,1.2,1.2,1.9
		c0.3,0.8,0.4,1.6,0.4,2.5v1.2c0,0.9-0.1,1.8-0.4,2.5c-0.3,0.8-0.7,1.4-1.2,1.9c-0.5,0.5-1.1,0.9-1.8,1.2c-0.7,0.3-1.5,0.4-2.4,0.4
		H309.7z M310.8,554v11.6h2.6c0.7,0,1.4-0.1,2-0.4c0.6-0.2,1.1-0.6,1.5-1.1c0.4-0.5,0.7-1,0.9-1.6c0.2-0.6,0.3-1.3,0.3-2.1v-1.3
		c0-0.8-0.1-1.5-0.3-2.1s-0.5-1.2-0.9-1.6s-0.9-0.8-1.5-1s-1.2-0.4-1.9-0.4H310.8z"/>
</g>
<g>
	<path fill="#B21E43" d="M223.3,538.5c-0.2,0.2-0.4,0.5-0.7,0.7c-0.3,0.3-0.7,0.5-1.1,0.7c-0.5,0.2-1,0.4-1.7,0.6
		c-0.6,0.2-1.4,0.2-2.3,0.2c-1,0-1.9-0.2-2.7-0.5c-0.8-0.3-1.5-0.8-2.1-1.5s-1-1.4-1.4-2.4c-0.3-0.9-0.5-2-0.5-3.2v-1
		c0-1.2,0.1-2.3,0.4-3.2c0.3-0.9,0.7-1.7,1.3-2.4s1.2-1.1,2-1.5s1.7-0.5,2.7-0.5c1,0,1.8,0.1,2.5,0.4c0.7,0.2,1.3,0.6,1.8,1
		s0.9,1,1.1,1.6c0.3,0.6,0.5,1.3,0.6,2h-2.7c-0.1-0.4-0.2-0.8-0.3-1.1s-0.4-0.6-0.6-0.9c-0.3-0.3-0.6-0.4-1-0.6
		c-0.4-0.1-0.8-0.2-1.4-0.2c-0.6,0-1.2,0.1-1.7,0.4c-0.5,0.2-0.9,0.6-1.2,1c-0.3,0.5-0.5,1-0.7,1.7c-0.2,0.7-0.2,1.4-0.2,2.3v1.1
		c0,0.9,0.1,1.6,0.3,2.3c0.2,0.7,0.5,1.2,0.8,1.7c0.3,0.5,0.8,0.8,1.3,1c0.5,0.2,1.1,0.4,1.7,0.4c0.5,0,0.9,0,1.2-0.1
		c0.3-0.1,0.6-0.1,0.8-0.2s0.4-0.2,0.6-0.3c0.1-0.1,0.3-0.2,0.4-0.3v-3.1h-3.2v-2.1h5.9V538.5z"/>
	<path fill="#B21E43" d="M232,534.5h-3v6h-2.7v-15.6h5.5c0.9,0,1.7,0.1,2.4,0.3c0.7,0.2,1.3,0.5,1.8,0.9c0.5,0.4,0.8,0.9,1.1,1.5
		s0.4,1.3,0.4,2c0,1-0.3,1.9-0.8,2.6c-0.5,0.7-1.2,1.2-2.1,1.6l3.5,6.5v0.1h-2.9L232,534.5z M229,532.4h2.8c0.5,0,0.9-0.1,1.3-0.2
		s0.7-0.3,0.9-0.5s0.4-0.5,0.5-0.8s0.2-0.7,0.2-1c0-0.4-0.1-0.8-0.2-1.1c-0.1-0.3-0.3-0.6-0.5-0.8c-0.2-0.2-0.5-0.4-0.9-0.5
		c-0.4-0.1-0.8-0.2-1.3-0.2H229V532.4z"/>
	<path fill="#B21E43" d="M249.1,533.6h-6.4v4.8h7.5v2.2H240v-15.6h10.2v2.2h-7.4v4.3h6.4V533.6z"/>
	<path fill="#B21E43" d="M261.6,533.6h-6.4v4.8h7.5v2.2h-10.2v-15.6h10.2v2.2h-7.4v4.3h6.4V533.6z"/>
	<path fill="#B21E43" d="M269.3,533.8l-1.8,1.9v4.9h-2.7v-15.6h2.7v7.3l1.5-1.9l4.6-5.5h3.3l-5.8,6.9l6.1,8.7h-3.2L269.3,533.8z"/>
</g>
<g>
	<path fill="#808285" d="M114.2,538.5c-0.2,0.2-0.4,0.5-0.7,0.7c-0.3,0.3-0.7,0.5-1.1,0.7c-0.5,0.2-1,0.4-1.7,0.6
		c-0.6,0.2-1.4,0.2-2.3,0.2c-1,0-1.9-0.2-2.7-0.5c-0.8-0.3-1.5-0.8-2.1-1.5s-1-1.4-1.4-2.4c-0.3-0.9-0.5-2-0.5-3.2v-1
		c0-1.2,0.1-2.3,0.4-3.2c0.3-0.9,0.7-1.7,1.3-2.4s1.2-1.1,2-1.5s1.7-0.5,2.7-0.5c1,0,1.8,0.1,2.5,0.4c0.7,0.2,1.3,0.6,1.8,1
		s0.9,1,1.1,1.6c0.3,0.6,0.5,1.3,0.6,2h-2.7c-0.1-0.4-0.2-0.8-0.3-1.1s-0.4-0.6-0.6-0.9c-0.3-0.3-0.6-0.4-1-0.6
		c-0.4-0.1-0.8-0.2-1.4-0.2c-0.6,0-1.2,0.1-1.7,0.4c-0.5,0.2-0.9,0.6-1.2,1c-0.3,0.5-0.5,1-0.7,1.7c-0.2,0.7-0.2,1.4-0.2,2.3v1.1
		c0,0.9,0.1,1.6,0.3,2.3c0.2,0.7,0.5,1.2,0.8,1.7c0.3,0.5,0.8,0.8,1.3,1c0.5,0.2,1.1,0.4,1.7,0.4c0.5,0,0.9,0,1.2-0.1
		c0.3-0.1,0.6-0.1,0.8-0.2s0.4-0.2,0.6-0.3c0.1-0.1,0.3-0.2,0.4-0.3v-3.1h-3.2v-2.1h5.9V538.5z"/>
	<path fill="#808285" d="M129.7,533.1c0,1.2-0.2,2.3-0.5,3.2c-0.3,0.9-0.8,1.7-1.3,2.4c-0.6,0.7-1.2,1.2-2,1.5s-1.7,0.5-2.6,0.5
		c-1,0-1.8-0.2-2.6-0.5s-1.5-0.9-2.1-1.5c-0.6-0.7-1-1.5-1.3-2.4c-0.3-0.9-0.5-2-0.5-3.2v-0.8c0-1.2,0.2-2.3,0.5-3.2
		c0.3-0.9,0.8-1.7,1.3-2.4c0.6-0.7,1.3-1.2,2-1.5s1.7-0.5,2.6-0.5c1,0,1.8,0.2,2.6,0.5c0.8,0.4,1.5,0.9,2.1,1.5
		c0.6,0.7,1,1.5,1.3,2.4c0.3,0.9,0.5,2,0.5,3.2V533.1z M127,532.3c0-0.9-0.1-1.6-0.3-2.3c-0.2-0.7-0.4-1.2-0.7-1.7s-0.7-0.8-1.2-1
		c-0.5-0.2-1-0.3-1.6-0.3c-0.6,0-1.1,0.1-1.6,0.3c-0.5,0.2-0.9,0.6-1.2,1c-0.3,0.5-0.6,1-0.8,1.7c-0.2,0.7-0.3,1.4-0.3,2.3v0.8
		c0,0.9,0.1,1.6,0.3,2.3c0.2,0.7,0.4,1.2,0.8,1.7c0.3,0.5,0.7,0.8,1.2,1c0.5,0.2,1,0.3,1.6,0.3c1.2,0,2.1-0.5,2.8-1.4
		c0.6-0.9,1-2.3,1-4V532.3z"/>
	<path fill="#808285" d="M143.8,524.9v10.5c0,0.9-0.2,1.7-0.5,2.4c-0.3,0.7-0.7,1.2-1.3,1.7s-1.1,0.8-1.9,1
		c-0.7,0.2-1.5,0.3-2.3,0.3c-0.8,0-1.6-0.1-2.3-0.3c-0.7-0.2-1.3-0.6-1.9-1s-0.9-1-1.2-1.7s-0.4-1.5-0.4-2.4v-10.5h2.7v10.5
		c0,0.6,0.1,1,0.2,1.4c0.1,0.4,0.4,0.7,0.6,1s0.6,0.5,1,0.6c0.4,0.1,0.8,0.2,1.3,0.2s0.9-0.1,1.3-0.2c0.4-0.1,0.7-0.3,1-0.6
		c0.3-0.3,0.5-0.6,0.6-1c0.1-0.4,0.2-0.9,0.2-1.4v-10.5H143.8z"/>
	<path fill="#808285" d="M152.5,534.5h-3v6h-2.7v-15.6h5.5c0.9,0,1.7,0.1,2.4,0.3c0.7,0.2,1.3,0.5,1.8,0.9c0.5,0.4,0.8,0.9,1.1,1.5
		s0.4,1.3,0.4,2c0,1-0.3,1.9-0.8,2.6c-0.5,0.7-1.2,1.2-2.1,1.6l3.5,6.5v0.1h-2.9L152.5,534.5z M149.5,532.4h2.8
		c0.5,0,0.9-0.1,1.3-0.2s0.7-0.3,0.9-0.5s0.4-0.5,0.5-0.8s0.2-0.7,0.2-1c0-0.4-0.1-0.8-0.2-1.1c-0.1-0.3-0.3-0.6-0.5-0.8
		c-0.2-0.2-0.5-0.4-0.9-0.5c-0.4-0.1-0.8-0.2-1.3-0.2h-2.8V532.4z"/>
	<path fill="#808285" d="M164,524.9l4.5,12l4.5-12h3.5v15.6h-2.7v-5.2l0.3-6.9l-4.6,12.1h-1.9l-4.6-12l0.3,6.9v5.2h-2.7v-15.6H164z"
		/>
	<path fill="#808285" d="M188.9,533.6h-6.4v4.8h7.5v2.2h-10.2v-15.6h10.2v2.2h-7.4v4.3h6.4V533.6z"/>
	<path fill="#808285" d="M203.7,527.1h-4.9v13.4h-2.7v-13.4h-4.8v-2.2h12.4V527.1z"/>
</g>
<g>
	<path fill="#808285" d="M296.2,535.5c-0.1,0.8-0.3,1.5-0.5,2.1c-0.3,0.6-0.7,1.2-1.2,1.7s-1.1,0.8-1.9,1.1
		c-0.7,0.3-1.6,0.4-2.5,0.4s-1.8-0.2-2.6-0.5c-0.8-0.3-1.4-0.8-2-1.5c-0.5-0.6-1-1.4-1.3-2.3s-0.4-1.9-0.4-3.1v-1.3
		c0-1.1,0.2-2.1,0.5-3.1c0.3-0.9,0.7-1.7,1.3-2.3s1.2-1.1,2-1.5c0.8-0.4,1.7-0.5,2.7-0.5c0.9,0,1.8,0.1,2.5,0.4
		c0.7,0.3,1.3,0.6,1.8,1.1c0.5,0.5,0.9,1,1.2,1.7c0.3,0.7,0.5,1.4,0.5,2.2h-2.7c-0.1-0.5-0.2-0.9-0.3-1.3c-0.1-0.4-0.3-0.7-0.6-1
		c-0.3-0.3-0.6-0.5-1-0.6s-0.9-0.2-1.4-0.2c-0.6,0-1.2,0.1-1.6,0.3c-0.5,0.2-0.8,0.6-1.2,1c-0.3,0.4-0.5,1-0.7,1.6
		c-0.2,0.6-0.2,1.4-0.2,2.2v1.3c0,0.8,0.1,1.5,0.2,2.1s0.3,1.2,0.6,1.6c0.3,0.5,0.7,0.8,1.1,1.1s1,0.4,1.6,0.4
		c0.6,0,1.1-0.1,1.5-0.2c0.4-0.1,0.7-0.3,1-0.6s0.5-0.6,0.6-1c0.1-0.4,0.3-0.8,0.3-1.3H296.2z"/>
	<path fill="#808285" d="M310.1,524.9v10.5c0,0.9-0.2,1.7-0.5,2.4c-0.3,0.7-0.7,1.2-1.3,1.7s-1.1,0.8-1.9,1
		c-0.7,0.2-1.5,0.3-2.3,0.3c-0.8,0-1.6-0.1-2.3-0.3c-0.7-0.2-1.3-0.6-1.9-1s-0.9-1-1.2-1.7s-0.4-1.5-0.4-2.4v-10.5h2.7v10.5
		c0,0.6,0.1,1,0.2,1.4c0.1,0.4,0.4,0.7,0.6,1s0.6,0.5,1,0.6c0.4,0.1,0.8,0.2,1.3,0.2s0.9-0.1,1.3-0.2c0.4-0.1,0.7-0.3,1-0.6
		c0.3-0.3,0.5-0.6,0.6-1c0.1-0.4,0.2-0.9,0.2-1.4v-10.5H310.1z"/>
	<path fill="#808285" d="M315.9,540.6h-2.7v-15.6h2.7V540.6z"/>
	<path fill="#808285" d="M327.4,536.5c0-0.3,0-0.6-0.1-0.8c-0.1-0.2-0.3-0.5-0.5-0.7c-0.2-0.2-0.6-0.4-1-0.6c-0.4-0.2-1-0.4-1.7-0.6
		c-0.7-0.2-1.4-0.5-2.1-0.8s-1.2-0.6-1.6-1c-0.5-0.4-0.8-0.8-1.1-1.3s-0.4-1.1-0.4-1.7c0-0.6,0.1-1.2,0.4-1.7c0.3-0.5,0.6-1,1.1-1.4
		s1.1-0.7,1.8-0.9s1.4-0.3,2.3-0.3c0.9,0,1.7,0.1,2.4,0.4c0.7,0.3,1.3,0.6,1.8,1c0.5,0.4,0.9,0.9,1.1,1.5c0.3,0.6,0.4,1.2,0.4,1.8
		h-2.7c0-0.4-0.1-0.7-0.2-1c-0.1-0.3-0.3-0.6-0.5-0.8c-0.2-0.2-0.6-0.4-0.9-0.5s-0.8-0.2-1.3-0.2c-0.5,0-0.9,0.1-1.2,0.2
		s-0.6,0.3-0.9,0.5c-0.2,0.2-0.4,0.4-0.5,0.7c-0.1,0.3-0.2,0.6-0.2,0.9c0,0.6,0.3,1.1,0.8,1.5c0.5,0.4,1.4,0.7,2.5,1.1
		c0.9,0.3,1.6,0.5,2.3,0.9s1.2,0.7,1.6,1.1c0.4,0.4,0.7,0.8,1,1.3c0.2,0.5,0.3,1.1,0.3,1.7c0,0.7-0.1,1.3-0.4,1.8
		c-0.3,0.5-0.6,1-1.1,1.3c-0.5,0.4-1.1,0.7-1.8,0.8c-0.7,0.2-1.5,0.3-2.3,0.3c-0.8,0-1.5-0.1-2.2-0.3c-0.7-0.2-1.4-0.5-2-0.9
		c-0.6-0.4-1-0.9-1.4-1.5c-0.4-0.6-0.5-1.3-0.5-2.2h2.7c0,0.5,0.1,0.9,0.3,1.3c0.2,0.4,0.4,0.6,0.7,0.9c0.3,0.2,0.7,0.4,1.1,0.5
		c0.4,0.1,0.9,0.2,1.3,0.2c0.9,0,1.7-0.2,2.1-0.6C327.1,537.7,327.4,537.2,327.4,536.5z"/>
	<path fill="#808285" d="M335.4,540.6h-2.7v-15.6h2.7V540.6z"/>
	<path fill="#808285" d="M351.1,540.6h-2.7l-7-11.1v11.1h-2.7v-15.6h2.7l7,11.1v-11.1h2.7V540.6z"/>
	<path fill="#808285" d="M363.5,533.6H357v4.8h7.5v2.2h-10.2v-15.6h10.2v2.2H357v4.3h6.4V533.6z"/>
</g>
<g>
	<circle fill="none" stroke="#808285" stroke-miterlimit="10" cx="242.5" cy="183" r="182.4"/>
	<g>
		<defs>
			<circle id="SVGID_1_" cx="242.5" cy="182.4" r="182.4"/>
		</defs>
		<clipPath id="SVGID_2_">
			<use xlink:href="#SVGID_1_"  overflow="visible"/>
		</clipPath>
		<g clip-path="url(#SVGID_2_)">
			<path fill="none" stroke="#808285" stroke-miterlimit="10" d="M301.3,184.1c0,288-112.9,266.8-133,190.2
				c-29.2-111.6,113.5-175.5,183.1-107.4"/>
			<path fill="none" stroke="#808285" stroke-miterlimit="10" d="M301.3,185.4c0-288-112.9-266.8-133-190.2
				c-29.2,111.6,113.5,175.5,183.1,107.4"/>
			<circle fill="none" stroke="#808285" stroke-miterlimit="10" cx="245.1" cy="184.1" r="56.2"/>
		</g>
	</g>
</g>
<g>
</g>
<g>
</g>
<g>
</g>
<g>
</g>
<g>
</g>
<g>
</g>
</svg>
